#N canvas 0 22 450 300 10;
#X obj 117 87 inlet;
#X obj 130 233 outlet;
#X obj 223 83 inlet;
#X obj 141 147 *;
#X obj 142 192 float;
#X obj 196 188 * 0.9;
#X connect 0 0 3 0;
#X connect 2 0 3 1;
#X connect 3 0 4 0;
#X connect 4 0 5 0;
#X connect 4 0 1 0;
#X connect 5 0 4 1;
